<?xml version="1.0" encoding="UTF-8"?>
<!DOCTYPE svg PUBLIC "-//W3C//DTD SVG 1.1//EN" "http://www.w3.org/Graphics/SVG/1.1/DTD/svg11.dtd">
<svg xmlns="http://www.w3.org/2000/svg" version="1.1" width="64px" height="64px" style="shape-rendering:geometricPrecision; text-rendering:geometricPrecision; image-rendering:optimizeQuality; fill-rule:evenodd; clip-rule:evenodd" xmlns:xlink="http://www.w3.org/1999/xlink">
<g><path style="opacity:1" fill="#f9a6b1" d="M 6.5,4.5 C 6.5,20.1667 6.5,35.8333 6.5,51.5C 6.5,52.1667 6.16667,52.5 5.5,52.5C 4.5,52.5 3.5,52.5 2.5,52.5C 2.5,36.5 2.5,20.5 2.5,4.5C 3.83333,4.5 5.16667,4.5 6.5,4.5 Z"/></g>
<g><path style="opacity:1" fill="#d78f99" d="M 6.5,4.5 C 7.83333,4.5 9.16667,4.5 10.5,4.5C 10.5,20.1667 10.5,35.8333 10.5,51.5C 9.16667,51.5 7.83333,51.5 6.5,51.5C 6.5,35.8333 6.5,20.1667 6.5,4.5 Z"/></g>
<g><path style="opacity:1" fill="#f9a6b1" d="M 10.5,4.5 C 11.8333,4.5 13.1667,4.5 14.5,4.5C 14.5,5.5 14.5,6.5 14.5,7.5C 14.5,8.83333 14.5,10.1667 14.5,11.5C 14.5,16.1667 14.5,20.8333 14.5,25.5C 14.5,26.8333 14.5,28.1667 14.5,29.5C 14.5,33.8333 14.5,38.1667 14.5,42.5C 14.5,45.8333 14.5,49.1667 14.5,52.5C 12.901,52.7678 11.5676,52.4345 10.5,51.5C 10.5,35.8333 10.5,20.1667 10.5,4.5 Z"/></g>
<g><path style="opacity:0.96" fill="#cacaca" d="M 14.5,11.5 C 14.5,10.1667 14.5,8.83333 14.5,7.5C 16.8333,7.5 19.1667,7.5 21.5,7.5C 21.5,6.5 21.5,5.5 21.5,4.5C 22.8333,4.5 24.1667,4.5 25.5,4.5C 25.7564,6.7925 25.4231,8.95917 24.5,11C 21.1832,11.4983 17.8499,11.665 14.5,11.5 Z"/></g>
<g><path style="opacity:0.911" fill="#90d0f7" d="M 57.5,11.5 C 51.7235,13.8878 46.0568,16.5544 40.5,19.5C 39.6577,9.84309 43.9911,6.00975 53.5,8C 55.3237,8.65999 56.657,9.82665 57.5,11.5 Z"/></g>
<g><path style="opacity:0.972" fill="#81caf7" d="M 57.5,11.5 C 58.7901,17.1358 58.7901,22.8025 57.5,28.5C 54.715,27.9162 53.0483,28.9162 52.5,31.5C 43.5,32.5 39.5,28.5 40.5,19.5C 46.0568,16.5544 51.7235,13.8878 57.5,11.5 Z"/></g>
<g><path style="opacity:0.946" fill="#f0a533" d="M 28.5,25.5 C 25.1667,25.5 21.8333,25.5 18.5,25.5C 18.5,22.8333 18.5,20.1667 18.5,17.5C 21.7345,18.576 25.0678,19.2427 28.5,19.5C 28.5,21.5 28.5,23.5 28.5,25.5 Z"/></g>
<g><path style="opacity:1" fill="#6b4f27" d="M 14.5,25.5 C 15.8333,25.5 17.1667,25.5 18.5,25.5C 21.8333,25.5 25.1667,25.5 28.5,25.5C 29.5,25.5 30.5,25.5 31.5,25.5C 31.5,26.8333 31.5,28.1667 31.5,29.5C 25.8333,29.5 20.1667,29.5 14.5,29.5C 14.5,28.1667 14.5,26.8333 14.5,25.5 Z"/></g>
<g><path style="opacity:0.967" fill="#e4e4e2" d="M 57.5,28.5 C 58.3063,29.8675 59.3063,31.2008 60.5,32.5C 59.0998,36.5309 57.7665,40.5309 56.5,44.5C 51.8333,44.5 47.1667,44.5 42.5,44.5C 40.7739,42.1799 40.1072,39.5133 40.5,36.5C 45.8333,36.5 51.1667,36.5 56.5,36.5C 56.7852,34.712 56.4519,33.0453 55.5,31.5C 54.12,33.9767 53.12,33.9767 52.5,31.5C 53.0483,28.9162 54.715,27.9162 57.5,28.5 Z"/></g>
<g><path style="opacity:0.974" fill="#eaeae8" d="M 14.5,42.5 C 17.1667,42.5 19.8333,42.5 22.5,42.5C 22.5,43.5 22.5,44.5 22.5,45.5C 22.5,46.1667 22.5,46.8333 22.5,47.5C 22.5,48.5 22.5,49.5 22.5,50.5C 25.1667,50.5 27.8333,50.5 30.5,50.5C 30.5,49.5 30.5,48.5 30.5,47.5C 30.5,46.8333 30.5,46.1667 30.5,45.5C 30.5,44.5 30.5,43.5 30.5,42.5C 32.1667,42.5 33.8333,42.5 35.5,42.5C 35.9733,47.74 34.6399,52.4067 31.5,56.5C 23.5,56.5 15.5,56.5 7.5,56.5C 6.83333,55.1667 6.16667,53.8333 5.5,52.5C 6.16667,52.5 6.5,52.1667 6.5,51.5C 7.83333,51.5 9.16667,51.5 10.5,51.5C 11.5676,52.4345 12.901,52.7678 14.5,52.5C 14.5,49.1667 14.5,45.8333 14.5,42.5 Z"/></g>
<g><path style="opacity:1" fill="#92d1f6" d="M 22.5,42.5 C 25.1667,42.5 27.8333,42.5 30.5,42.5C 30.5,43.5 30.5,44.5 30.5,45.5C 27.8333,45.5 25.1667,45.5 22.5,45.5C 22.5,44.5 22.5,43.5 22.5,42.5 Z"/></g>
<g><path style="opacity:1" fill="#6b4f27" d="M 42.5,44.5 C 47.1667,44.5 51.8333,44.5 56.5,44.5C 57.5,44.5 58.5,44.5 59.5,44.5C 59.5,48.5 59.5,52.5 59.5,56.5C 52.8333,56.5 46.1667,56.5 39.5,56.5C 39.5,52.5 39.5,48.5 39.5,44.5C 40.5,44.5 41.5,44.5 42.5,44.5 Z"/></g>
<g><path style="opacity:1" fill="#f6ba60" d="M 22.5,45.5 C 25.1667,45.5 27.8333,45.5 30.5,45.5C 30.5,46.1667 30.5,46.8333 30.5,47.5C 27.8333,47.5 25.1667,47.5 22.5,47.5C 22.5,46.8333 22.5,46.1667 22.5,45.5 Z"/></g>
<g><path style="opacity:1" fill="#92d1f6" d="M 22.5,47.5 C 25.1667,47.5 27.8333,47.5 30.5,47.5C 30.5,48.5 30.5,49.5 30.5,50.5C 27.8333,50.5 25.1667,50.5 22.5,50.5C 22.5,49.5 22.5,48.5 22.5,47.5 Z"/></g>
<g><path style="opacity:1" fill="#6ac2f7" d="M 7.5,56.5 C 15.5,56.5 23.5,56.5 31.5,56.5C 34.1667,56.5 36.8333,56.5 39.5,56.5C 46.1667,56.5 52.8333,56.5 59.5,56.5C 60.4345,57.5676 60.7678,58.901 60.5,60.5C 41.1667,60.5 21.8333,60.5 2.5,60.5C 2.5,59.1667 2.5,57.8333 2.5,56.5C 4.16667,56.5 5.83333,56.5 7.5,56.5 Z"/></g>
</svg>
