<?xml version="1.0" encoding="UTF-8"?>
<!DOCTYPE svg PUBLIC "-//W3C//DTD SVG 1.1//EN" "http://www.w3.org/Graphics/SVG/1.1/DTD/svg11.dtd">
<svg xmlns="http://www.w3.org/2000/svg" version="1.1" width="64px" height="64px" style="shape-rendering:geometricPrecision; text-rendering:geometricPrecision; image-rendering:optimizeQuality; fill-rule:evenodd; clip-rule:evenodd" xmlns:xlink="http://www.w3.org/1999/xlink">
<g><path style="opacity:0.956" fill="#ba703e" d="M 9.5,-0.5 C 22.8333,-0.5 36.1667,-0.5 49.5,-0.5C 49.7828,0.28913 50.2828,0.955796 51,1.5C 51.6667,19.5 51.6667,37.5 51,55.5C 50.2828,56.0442 49.7828,56.7109 49.5,57.5C 46.1667,57.5 42.8333,57.5 39.5,57.5C 34.1667,57.5 28.8333,57.5 23.5,57.5C 19.8333,57.5 16.1667,57.5 12.5,57.5C 10.6096,57.7035 9.10963,57.0368 8,55.5C 7.33333,37.5 7.33333,19.5 8,1.5C 8.71719,0.955796 9.21719,0.28913 9.5,-0.5 Z"/></g>
<g><path style="opacity:1" fill="#a55926" d="M 49.5,-0.5 C 50.8333,-0.5 52.1667,-0.5 53.5,-0.5C 53.7828,0.28913 54.2828,0.955796 55,1.5C 55.6667,19.5 55.6667,37.5 55,55.5C 53.8904,57.0368 52.3904,57.7035 50.5,57.5C 50.1667,57.5 49.8333,57.5 49.5,57.5C 49.7828,56.7109 50.2828,56.0442 51,55.5C 51.6667,37.5 51.6667,19.5 51,1.5C 50.2828,0.955796 49.7828,0.28913 49.5,-0.5 Z"/></g>
<g><path style="opacity:1" fill="#e49661" d="M 12.5,4.5 C 24.1667,4.5 35.8333,4.5 47.5,4.5C 47.5,9.16667 47.5,13.8333 47.5,18.5C 35.8333,18.5 24.1667,18.5 12.5,18.5C 12.5,13.8333 12.5,9.16667 12.5,4.5 Z"/></g>
<g><path style="opacity:1" fill="#fad187" d="M 23.5,8.5 C 28.5048,11.0571 33.5048,11.0571 38.5,8.5C 42.2232,10.4683 42.2232,12.1349 38.5,13.5C 33.8333,12.1667 29.1667,12.1667 24.5,13.5C 23.3279,13.0814 22.3279,12.4147 21.5,11.5C 22.6119,10.7348 23.2786,9.73485 23.5,8.5 Z"/></g>
<g><path style="opacity:1" fill="#e59661" d="M 12.5,21.5 C 24.1667,21.5 35.8333,21.5 47.5,21.5C 47.5,26.1667 47.5,30.8333 47.5,35.5C 35.8333,35.5 24.1667,35.5 12.5,35.5C 12.5,30.8333 12.5,26.1667 12.5,21.5 Z"/></g>
<g><path style="opacity:1" fill="#fcd78a" d="M 23.5,26.5 C 28.5012,27.778 33.5012,27.778 38.5,26.5C 42.5,27.8333 42.5,29.1667 38.5,30.5C 33.7331,28.8319 29.2331,29.1652 25,31.5C 23.9264,30.3816 22.7598,29.3816 21.5,28.5C 22.2427,27.8182 22.9094,27.1515 23.5,26.5 Z"/></g>
<g><path style="opacity:1" fill="#e49661" d="M 12.5,38.5 C 24.1667,38.5 35.8333,38.5 47.5,38.5C 47.5,43.1667 47.5,47.8333 47.5,52.5C 35.8333,52.5 24.1667,52.5 12.5,52.5C 12.5,47.8333 12.5,43.1667 12.5,38.5 Z"/></g>
<g><path style="opacity:1" fill="#fbd388" d="M 23.5,43.5 C 28.5012,44.778 33.5012,44.778 38.5,43.5C 39.6721,43.9186 40.6721,44.5853 41.5,45.5C 40.2402,46.3816 39.0736,47.3816 38,48.5C 36.1303,47.2565 33.9637,46.5899 31.5,46.5C 28.9568,46.6397 26.6234,47.3063 24.5,48.5C 23.5,47.5 22.5,46.5 21.5,45.5C 22.2427,44.8182 22.9094,44.1515 23.5,43.5 Z"/></g>
<g><path style="opacity:0.954" fill="#27718d" d="M 12.5,57.5 C 16.1667,57.5 19.8333,57.5 23.5,57.5C 23.1667,59.5 22.8333,61.5 22.5,63.5C 19.5,63.5 16.5,63.5 13.5,63.5C 13.4828,61.4352 13.1495,59.4352 12.5,57.5 Z"/></g>
<g><path style="opacity:0.958" fill="#2a6f90" d="M 39.5,57.5 C 42.8333,57.5 46.1667,57.5 49.5,57.5C 49.8333,57.5 50.1667,57.5 50.5,57.5C 49.8505,59.4352 49.5172,61.4352 49.5,63.5C 46.5,63.5 43.5,63.5 40.5,63.5C 40.1667,61.5 39.8333,59.5 39.5,57.5 Z"/></g>
</svg>
