<?xml version="1.0" encoding="UTF-8"?>
<!DOCTYPE svg PUBLIC "-//W3C//DTD SVG 1.1//EN" "http://www.w3.org/Graphics/SVG/1.1/DTD/svg11.dtd">
<svg xmlns="http://www.w3.org/2000/svg" version="1.1" width="64px" height="64px" style="shape-rendering:geometricPrecision; text-rendering:geometricPrecision; image-rendering:optimizeQuality; fill-rule:evenodd; clip-rule:evenodd" xmlns:xlink="http://www.w3.org/1999/xlink">
<g><path style="opacity:0.681" fill="#000000" d="M 12.5,0.5 C 19.5747,1.49965 21.2414,4.99965 17.5,11C 12.6379,12.4759 10.4712,10.6426 11,5.5C 8.74221,11.4458 10.9089,14.7792 17.5,15.5C 17.7778,17.3464 17.1112,18.6798 15.5,19.5C 7.43871,17.3717 4.60538,12.3717 7,4.5C 8.49981,2.5313 10.3331,1.19796 12.5,0.5 Z"/></g>
<g><path style="opacity:0.784" fill="#070504" d="M 63.5,7.5 C 63.5,9.5 63.5,11.5 63.5,13.5C 56.3685,20.1307 49.3685,26.9641 42.5,34C 36.5959,34.9802 31.9293,37.9802 28.5,43C 40.1619,43.4999 51.8286,43.6665 63.5,43.5C 63.5,49.5 63.5,55.5 63.5,61.5C 42.1667,62.8333 20.8333,62.8333 -0.5,61.5C -0.5,55.5 -0.5,49.5 -0.5,43.5C 5.28956,43.9038 10.9562,43.4038 16.5,42C 19.4079,39.2934 20.0746,36.1267 18.5,32.5C 17.9984,31.479 17.3317,31.3123 16.5,32C 17.9798,37.1884 15.9798,39.1884 10.5,38C 6.93706,32.2523 8.43706,28.419 15,26.5C 19.5912,27.4269 22.5912,30.0936 24,34.5C 27.7849,30.4853 30.4516,25.8186 32,20.5C 38.7566,12.905 46.2566,6.23838 54.5,0.5C 58.4275,1.77409 61.4275,4.10743 63.5,7.5 Z"/></g>
<g><path style="opacity:1" fill="#e69b55" d="M 52.5,4.5 C 59.0739,4.96821 59.9072,7.30154 55,11.5C 54.3123,12.3317 54.479,12.9984 55.5,13.5C 56.8333,12.5 58.1667,11.5 59.5,10.5C 59.8333,10.8333 60.1667,11.1667 60.5,11.5C 54.1667,18.5 47.5,25.1667 40.5,31.5C 39.479,30.9984 39.3123,30.3317 40,29.5C 41.6851,27.9825 43.1851,26.3159 44.5,24.5C 43.9984,23.479 43.3317,23.3123 42.5,24C 39.5334,29.5301 36.5334,29.6968 33.5,24.5C 39.8549,17.8129 46.1882,11.1462 52.5,4.5 Z"/></g>
<g><path style="opacity:1" fill="#22180f" d="M 50.5,8.5 C 51.675,8.28099 52.675,8.61432 53.5,9.5C 52.1667,11.5 50.5,13.1667 48.5,14.5C 48.1667,14 47.8333,13.5 47.5,13C 48.3146,11.3566 49.3146,9.85659 50.5,8.5 Z"/></g>
<g><path style="opacity:1" fill="#2b1e13" d="M 43.5,15.5 C 45.2252,15.8425 45.7252,16.8425 45,18.5C 43.6487,20.019 42.1487,21.3523 40.5,22.5C 39.4173,21.635 39.2506,20.635 40,19.5C 41.3756,18.2949 42.5423,16.9616 43.5,15.5 Z"/></g>
<g><path style="opacity:1" fill="#110a04" d="M 45.5,20.5 C 47.337,20.6395 47.6704,21.3061 46.5,22.5C 45.7025,22.0431 45.3691,21.3764 45.5,20.5 Z"/></g>
<g><path style="opacity:1" fill="#bbbbc8" d="M 32.5,28.5 C 33.9616,29.4577 35.2949,30.6244 36.5,32C 34.1589,32.1681 32.8256,31.0014 32.5,28.5 Z"/></g>
<g><path style="opacity:1" fill="#c8c8d6" d="M 30.5,32.5 C 32.0281,32.5173 32.5281,33.184 32,34.5C 28.8333,37.6667 25.6667,40.8333 22.5,44C 21.365,44.7494 20.365,44.5827 19.5,43.5C 23.521,40.1456 27.1877,36.479 30.5,32.5 Z"/></g>
<g><path style="opacity:1" fill="#ec9f57" d="M 2.5,46.5 C 5.8499,46.335 9.18323,46.5017 12.5,47C 11.6266,48.045 10.6266,48.8783 9.5,49.5C 7.16667,49.5 4.83333,49.5 2.5,49.5C 2.5,48.5 2.5,47.5 2.5,46.5 Z"/></g>
<g><path style="opacity:1" fill="#e49954" d="M 51.5,52.5 C 54.2869,53.4767 57.2869,53.81 60.5,53.5C 60.5,55.1667 60.5,56.8333 60.5,58.5C 41.1667,58.5 21.8333,58.5 2.5,58.5C 2.5,56.5 2.5,54.5 2.5,52.5C 8.48455,53.8314 13.1512,51.9981 16.5,47C 24.1883,46.1685 31.855,46.3352 39.5,47.5C 38.0582,52.6088 34.7248,55.6088 29.5,56.5C 32.3104,57.7414 34.9771,57.408 37.5,55.5C 39.1312,52.4036 41.1312,49.5702 43.5,47C 49.4908,46.5005 55.4908,46.3338 61.5,46.5C 61.5,47.8333 61.5,49.1667 61.5,50.5C 57.6707,49.931 54.3373,50.5977 51.5,52.5 Z"/></g>
<g><path style="opacity:1" fill="#8c5e34" d="M 2.5,46.5 C 2.5,47.5 2.5,48.5 2.5,49.5C 4.83333,49.5 7.16667,49.5 9.5,49.5C 7.0521,50.4731 4.38544,50.8064 1.5,50.5C 1.23219,48.901 1.56552,47.5676 2.5,46.5 Z"/></g>
<g><path style="opacity:1" fill="#010100" d="M 18.5,50.5 C 22.226,50.1774 25.8927,50.5108 29.5,51.5C 27.6667,51.8333 25.8333,52.1667 24,52.5C 21.7047,52.4535 19.8714,51.7868 18.5,50.5 Z"/></g>
<g><path style="opacity:1" fill="#926236" d="M 2.5,52.5 C 2.5,54.5 2.5,56.5 2.5,58.5C 21.8333,58.5 41.1667,58.5 60.5,58.5C 60.5,56.8333 60.5,55.1667 60.5,53.5C 57.2869,53.81 54.2869,53.4767 51.5,52.5C 54.8333,52.5 58.1667,52.5 61.5,52.5C 61.5,54.8333 61.5,57.1667 61.5,59.5C 41.5,59.5 21.5,59.5 1.5,59.5C 1.19845,56.9407 1.53178,54.6074 2.5,52.5 Z"/></g>
<g><path style="opacity:1" fill="#2c1e12" d="M 24.5,55.5 C 26.337,55.6395 26.6704,56.3061 25.5,57.5C 24.7025,57.0431 24.3691,56.3764 24.5,55.5 Z"/></g>
<g><path style="opacity:1" fill="#080402" d="M 43.5,55.5 C 46.8984,55.1796 50.2317,55.513 53.5,56.5C 51.8333,56.8333 50.1667,57.1667 48.5,57.5C 46.3603,57.4439 44.6936,56.7773 43.5,55.5 Z"/></g>
<g><path style="opacity:1" fill="#160f09" d="M 7.5,55.5 C 11.226,55.1774 14.8927,55.5108 18.5,56.5C 16.6667,56.8333 14.8333,57.1667 13,57.5C 10.7047,57.4535 8.87135,56.7868 7.5,55.5 Z"/></g>
</svg>
