<?xml version="1.0" encoding="UTF-8"?>
<!DOCTYPE svg PUBLIC "-//W3C//DTD SVG 1.1//EN" "http://www.w3.org/Graphics/SVG/1.1/DTD/svg11.dtd">
<svg xmlns="http://www.w3.org/2000/svg" version="1.1" width="64px" height="64px" style="shape-rendering:geometricPrecision; text-rendering:geometricPrecision; image-rendering:optimizeQuality; fill-rule:evenodd; clip-rule:evenodd" xmlns:xlink="http://www.w3.org/1999/xlink">
<g><path style="opacity:0.854" fill="#07080a" d="M 63.5,9.5 C 63.5,24.1667 63.5,38.8333 63.5,53.5C 56.1667,53.5 48.8333,53.5 41.5,53.5C 41.5,54.5 41.5,55.5 41.5,56.5C 44.1873,56.3359 46.854,56.5026 49.5,57C 50.8333,58.6667 50.8333,60.3333 49.5,62C 37.5,62.6667 25.5,62.6667 13.5,62C 12.1667,60.3333 12.1667,58.6667 13.5,57C 16.146,56.5026 18.8127,56.3359 21.5,56.5C 21.5,55.5 21.5,54.5 21.5,53.5C 14.1667,53.5 6.83333,53.5 -0.5,53.5C -0.5,41.8333 -0.5,30.1667 -0.5,18.5C 1.47225,27.4401 2.13891,36.7734 1.5,46.5C 18.6749,46.1701 35.6749,46.5034 52.5,47.5C 35.6749,48.4966 18.6749,48.8299 1.5,48.5C 1.5,49.5 1.5,50.5 1.5,51.5C 21.5,51.5 41.5,51.5 61.5,51.5C 61.5,50.5 61.5,49.5 61.5,48.5C 58.9407,48.8016 56.6074,48.4682 54.5,47.5C 55.5676,46.5655 56.901,46.2322 58.5,46.5C 59.5,46.5 60.5,46.5 61.5,46.5C 61.5,34.5 61.5,22.5 61.5,10.5C 56.9677,10.1818 52.6344,10.5151 48.5,11.5C 47.9759,13.3057 47.3092,14.9724 46.5,16.5C 46.7148,14.8212 46.0481,13.8212 44.5,13.5C 43.5088,20.3134 43.1755,27.3134 43.5,34.5C 44.5,34.5 45.5,34.5 46.5,34.5C 46.5,29.5 46.5,24.5 46.5,19.5C 46.5,19.1667 46.5,18.8333 46.5,18.5C 47.6525,24.3188 47.8192,30.3188 47,36.5C 45.3267,39.0011 43.4933,41.3345 41.5,43.5C 38.6255,41.4231 36.4589,38.7564 35,35.5C 34.5003,27.8406 34.3336,20.1739 34.5,12.5C 29.3762,11.1714 23.8762,10.5048 18,10.5C 12.3229,10.5006 6.82289,10.8339 1.5,11.5C 1.92271,13.7812 1.25605,15.4479 -0.5,16.5C -0.5,14.1667 -0.5,11.8333 -0.5,9.5C 10.7524,8.5227 22.0857,8.18937 33.5,8.5C 34.6597,0.845227 38.8264,-1.48811 46,1.5C 47.4114,3.65035 48.2447,5.98368 48.5,8.5C 53.5947,8.22128 58.5947,8.55462 63.5,9.5 Z"/></g>
<g><path style="opacity:1" fill="#d53f93" d="M 44.5,5.5 C 41.9179,5.97461 39.9179,5.30794 38.5,3.5C 40.2646,2.53862 42.2646,2.20528 44.5,2.5C 44.5,3.5 44.5,4.5 44.5,5.5 Z"/></g>
<g><path style="opacity:1" fill="#6a204a" d="M 38.5,3.5 C 39.9179,5.30794 41.9179,5.97461 44.5,5.5C 42.3926,6.46822 40.0593,6.80155 37.5,6.5C 37.2627,5.20895 37.596,4.20895 38.5,3.5 Z"/></g>
<g><path style="opacity:1" fill="#af9032" d="M 46.5,8.5 C 43.1667,8.5 39.8333,8.5 36.5,8.5C 36.5,9.5 36.5,10.5 36.5,11.5C 35.5655,10.4324 35.2322,9.09903 35.5,7.5C 39.3714,7.18503 43.0381,7.51836 46.5,8.5 Z"/></g>
<g><path style="opacity:1" fill="#ffd247" d="M 46.5,8.5 C 46.5,9.5 46.5,10.5 46.5,11.5C 43.1667,11.5 39.8333,11.5 36.5,11.5C 36.5,10.5 36.5,9.5 36.5,8.5C 39.8333,8.5 43.1667,8.5 46.5,8.5 Z"/></g>
<g><path style="opacity:1" fill="#6f9296" d="M 1.5,11.5 C 6.82289,10.8339 12.3229,10.5006 18,10.5C 23.8762,10.5048 29.3762,11.1714 34.5,12.5C 23.5813,11.5234 12.5813,11.1901 1.5,11.5 Z"/></g>
<g><path style="opacity:1" fill="#b9f3f9" d="M 1.5,11.5 C 12.5813,11.1901 23.5813,11.5234 34.5,12.5C 34.3336,20.1739 34.5003,27.8406 35,35.5C 36.4589,38.7564 38.6255,41.4231 41.5,43.5C 43.4933,41.3345 45.3267,39.0011 47,36.5C 47.8192,30.3188 47.6525,24.3188 46.5,18.5C 46.5,17.8333 46.5,17.1667 46.5,16.5C 47.3092,14.9724 47.9759,13.3057 48.5,11.5C 51.8333,11.5 55.1667,11.5 58.5,11.5C 58.5,23.1667 58.5,34.8333 58.5,46.5C 56.901,46.2322 55.5676,46.5655 54.5,47.5C 53.8333,47.5 53.1667,47.5 52.5,47.5C 35.6749,46.5034 18.6749,46.1701 1.5,46.5C 2.13891,36.7734 1.47225,27.4401 -0.5,18.5C -0.5,17.8333 -0.5,17.1667 -0.5,16.5C 1.25605,15.4479 1.92271,13.7812 1.5,11.5 Z"/></g>
<g><path style="opacity:1" fill="#8decf8" d="M 48.5,11.5 C 52.6344,10.5151 56.9677,10.1818 61.5,10.5C 61.5,22.5 61.5,34.5 61.5,46.5C 60.5,46.5 59.5,46.5 58.5,46.5C 58.5,34.8333 58.5,23.1667 58.5,11.5C 55.1667,11.5 51.8333,11.5 48.5,11.5 Z"/></g>
<g><path style="opacity:1" fill="#ea49a6" d="M 36.5,13.5 C 37.821,16.5982 38.4877,20.0982 38.5,24C 38.1667,27.5 37.8333,31 37.5,34.5C 36.503,27.5316 36.1697,20.5316 36.5,13.5 Z"/></g>
<g><path style="opacity:1" fill="#aa3072" d="M 40.5,13.5 C 41.821,16.5982 42.4877,20.0982 42.5,24C 42.1667,27.5 41.8333,31 41.5,34.5C 40.503,27.5316 40.1697,20.5316 40.5,13.5 Z"/></g>
<g><path style="opacity:1" fill="#af1374" d="M 44.5,13.5 C 46.0481,13.8212 46.7148,14.8212 46.5,16.5C 46.5,17.1667 46.5,17.8333 46.5,18.5C 46.5,18.8333 46.5,19.1667 46.5,19.5C 45.6745,23.9819 45.1745,28.6486 45,33.5C 44.5004,26.8417 44.3337,20.175 44.5,13.5 Z"/></g>
<g><path style="opacity:1" fill="#0c0b06" d="M 16.5,16.5 C 21.1667,16.5 25.8333,16.5 30.5,16.5C 30.5,19.5 30.5,22.5 30.5,25.5C 25.8333,25.5 21.1667,25.5 16.5,25.5C 16.5,22.5 16.5,19.5 16.5,16.5 Z"/></g>
<g><path style="opacity:1" fill="#796425" d="M 28.5,18.5 C 25.1667,18.5 21.8333,18.5 18.5,18.5C 18.5,20.1667 18.5,21.8333 18.5,23.5C 17.5386,21.7354 17.2053,19.7354 17.5,17.5C 21.3714,17.185 25.0381,17.5184 28.5,18.5 Z"/></g>
<g><path style="opacity:1" fill="#fed54e" d="M 28.5,18.5 C 28.5,20.1667 28.5,21.8333 28.5,23.5C 25.1667,23.5 21.8333,23.5 18.5,23.5C 18.5,21.8333 18.5,20.1667 18.5,18.5C 21.8333,18.5 25.1667,18.5 28.5,18.5 Z"/></g>
<g><path style="opacity:1" fill="#520836" d="M 44.5,13.5 C 44.3337,20.175 44.5004,26.8417 45,33.5C 45.1745,28.6486 45.6745,23.9819 46.5,19.5C 46.5,24.5 46.5,29.5 46.5,34.5C 45.5,34.5 44.5,34.5 43.5,34.5C 43.1755,27.3134 43.5088,20.3134 44.5,13.5 Z"/></g>
<g><path style="opacity:1" fill="#0a1011" d="M 16.5,27.5 C 21.1667,27.5 25.8333,27.5 30.5,27.5C 30.5,31.8333 30.5,36.1667 30.5,40.5C 25.8333,40.5 21.1667,40.5 16.5,40.5C 16.5,36.1667 16.5,31.8333 16.5,27.5 Z"/></g>
<g><path style="opacity:1" fill="#00bcd4" d="M 18.5,29.5 C 21.8333,29.5 25.1667,29.5 28.5,29.5C 28.5,32.5 28.5,35.5 28.5,38.5C 25.1667,38.5 21.8333,38.5 18.5,38.5C 18.5,35.5 18.5,32.5 18.5,29.5 Z"/></g>
<g><path style="opacity:1" fill="#d18364" d="M 38.5,36.5 C 45.472,35.4342 46.3053,37.1008 41,41.5C 39.9055,39.9221 39.0722,38.2554 38.5,36.5 Z"/></g>
<g><path style="opacity:1" fill="#00525d" d="M 18.5,29.5 C 18.5,32.5 18.5,35.5 18.5,38.5C 21.8333,38.5 25.1667,38.5 28.5,38.5C 25.0381,39.4816 21.3714,39.815 17.5,39.5C 17.1872,35.9581 17.5206,32.6248 18.5,29.5 Z"/></g>
<g><path style="opacity:1" fill="#427f9f" d="M 52.5,47.5 C 53.1667,47.5 53.8333,47.5 54.5,47.5C 56.6074,48.4682 58.9407,48.8016 61.5,48.5C 61.5,49.5 61.5,50.5 61.5,51.5C 41.5,51.5 21.5,51.5 1.5,51.5C 1.5,50.5 1.5,49.5 1.5,48.5C 18.6749,48.8299 35.6749,48.4966 52.5,47.5 Z"/></g>
<g><path style="opacity:1" fill="#356988" d="M 23.5,53.5 C 28.8333,53.5 34.1667,53.5 39.5,53.5C 39.5,54.5 39.5,55.5 39.5,56.5C 34.1667,56.5 28.8333,56.5 23.5,56.5C 23.5,55.5 23.5,54.5 23.5,53.5 Z"/></g>
<g><path style="opacity:1" fill="#366882" d="M 15.5,58.5 C 26.1874,58.168 36.8541,58.5013 47.5,59.5C 42.1667,59.8333 36.8333,60.1667 31.5,60.5C 25.7891,60.4949 20.4558,59.8282 15.5,58.5 Z"/></g>
</svg>
