<svg xmlns="http://www.w3.org/2000/svg" style="shape-rendering:geometricPrecision;text-rendering:geometricPrecision;image-rendering:optimizeQuality;fill-rule:evenodd;clip-rule:evenodd" viewBox="0 0 512 512">
  <path d="M183 0h9c2 1 3 3 4 6l1 139h166l3 4 1 166h139c2 1 4 2 6 5v9l-5 3-145 1-77 76-171 1L13 512H4l-4-4v-9l101-102 1-170 76-77 1-145 4-5Zm8 163h144l-57 57H134l57-57Zm157 14v144l-57 57V234l57-57Zm-228 62h153v153h-51l-1-21c-5-7-11-7-16 0-1 6-2 13-1 21h-16l-1-46c-3-5-7-7-12-5-2 2-4 3-5 6v45h-16l-1-80c-2-4-4-6-8-5-5-1-8 1-9 6v79h-16V239Z" style="opacity:.945"/>
  <path d="M227 8c3-1 6 0 9 1l11 17 12-17c11-3 15 1 13 13l-15 22-2 20c-4 5-9 6-15 2l-2-6-1-16c-7-9-12-18-16-27 0-5 2-8 6-9Z" style="opacity:.917"/>
  <path d="m459 349 7 1 12 14 12-14c9-3 13 1 13 11l-13 19c5 5 9 11 13 18 0 9-4 13-13 10l-12-13-14 14c-10 1-14-3-12-12l14-18-14-17c-2-7 1-11 7-13Z" style="opacity:.924"/>
  <path d="M132 512H90c-5-3-7-7-5-12 7-11 15-20 23-29l-19-3c-4-3-5-7-4-11 1-3 2-4 5-5h42c5 3 6 8 3 14l-21 27 16 1c5 2 8 6 6 13l-4 5Z" style="opacity:.939"/>
</svg>
