<svg width="128" height="128" viewBox="0 0 128 128" fill="none" xmlns="http://www.w3.org/2000/svg"><g clip-path="url(#bathroom (1) 1__bathroom (1) 1__bathroom (1) 1__bathroom (1) 1__a)" fill-rule="evenodd" clip-rule="evenodd" fill="#040710"><path opacity=".812" d="M24.5-.5h14c18.439 8.197 25.939 22.53 22.5 43-1.894 8.64-6.394 15.474-13.5 20.5 5.323.5 10.656.666 16 .5 1.234 14.764-5.432 23.43-20 26a1643.541 1643.541 0 0 1 3 38h-30a1643.541 1643.541 0 0 1 3-38c-9.537-1.207-16.204-6.207-20-15v-11c5.344.166 10.677 0 16-.5C1.502 50.975-2.332 36.142 4 18.5 8.086 9.067 14.92 2.733 24.5-.5Zm2 5c19.105.104 29.105 9.77 30 29-.798 18.798-10.465 28.465-29 29-.165-3.35.002-6.683.5-10 3.092-1.682 5.259-.85 6.5 2.5 2.42.915 3.753.081 4-2.5-2.283-6.379-6.617-8.212-13-5.5L23 49.5a62.692 62.692 0 0 1-1.5 11C8.416 51.424 3.916 39.09 8 23.5c3.017-9.516 9.184-15.85 18.5-19Zm-22 64h54c-.934 8.041-5.267 13.208-13 15.5a130.44 130.44 0 0 1-31-1c-9.812-5.31-9.146-7.81 2-7.5 1.333-1 1.333-2 0-3a36.874 36.874 0 0 0-12-1v-3Zm21 21h12l4 33h-20l4-33Z"/><path opacity=".858" d="M73.5-.5h53c0 .667.333 1 1 1v58a493.266 493.266 0 0 1-54 .5L72 57.5a784.21 784.21 0 0 1 0-56c.717-.544 1.217-1.21 1.5-2Zm3 5h21v37h-21v-37Zm26 0h20v37h-20v-37Zm-26 42h46v8h-46v-8Z"/><path opacity=".707" d="M23.5 9.5c3.571-.092 4.738 1.575 3.5 5L18.5 23c-3.217.824-4.717-.343-4.5-3.5a133.243 133.243 0 0 0 9.5-10Z"/><path opacity=".733" d="M36.5 9.5c3.571-.092 4.738 1.575 3.5 5L17.5 37c-3.756 2.544-5.59 1.71-5.5-2.5a862.963 862.963 0 0 0 24.5-25Z"/><path opacity=".698" d="M89.5 20.5h6v5a18.436 18.436 0 0 1-6-.5c-1.228-1.49-1.228-2.99 0-4.5Z"/><path opacity=".699" d="M104.5 20.5h6v5a18.437 18.437 0 0 1-6-.5c-1.228-1.49-1.228-2.99 0-4.5Z"/><path opacity=".815" d="M127.5 74.5v4h-4c.669 4.176-.831 5.51-4.5 4a8.43 8.43 0 0 1-.5-4h-3a313 313 0 0 1-.5 25 9.454 9.454 0 0 1-1.5 2.5c-2.31.497-4.643.663-7 .5.556 3.395-.777 5.562-4 6.5-6 .667-12 .667-18 0a11.339 11.339 0 0 1-3.5-1.5 544.988 544.988 0 0 1-.5-33h-4c.67 4.176-.83 5.51-4.5 4a8.434 8.434 0 0 1-.5-4h-4c-.744-3.45.59-5.116 4-5-.116-3.41 1.55-4.744 5-4v4h4c-.541-3.152.459-5.652 3-7.5a196.24 196.24 0 0 1 28 0c2.732 1.654 4.065 4.154 4 7.5h3c-.15-3.661 1.35-4.661 4.5-3 .483.948.649 1.948.5 3 1.459-.067 2.792.266 4 1Zm-42-4h16v37h-16v-37Zm22 0c1.548.321 2.215 1.321 2 3-2.748.098-3.414-.902-2-3Zm-1 8h3v23h-3v-23Z"/><path opacity=".698" d="M21.5 71.5c4.438-1.075 6.438.592 6 5h-7c-.134-1.791.2-3.458 1-5Z"/></g></svg>