<svg width="128" height="128" viewBox="0 0 128 128" fill="none" xmlns="http://www.w3.org/2000/svg"><g clip-path="url(#drawers 1__a)"><path opacity=".804" fill-rule="evenodd" clip-rule="evenodd" d="M.5-.5h126c0 .667.333 1 1 1v15c-1.797 1.23-3.797 1.896-6 2 .167 30.669 0 61.335-.5 92-3.81 3.304-8.31 4.804-13.5 4.5 2.022 4.255 3.022 8.755 3 13.5h-13a141.971 141.971 0 0 0-9-13 313.078 313.078 0 0 0-50 0 141.971 141.971 0 0 0-9 13h-13c-.022-4.745.978-9.245 3-13.5-5.19.304-9.69-1.196-13.5-4.5a4230.06 4230.06 0 0 1-.5-92c-2.203-.104-4.203-.77-6-2V.5c.667 0 1-.333 1-1Zm4 5h118v7H4.5v-7Zm6 13h14c.591 6.904 4.425 9.57 11.5 8 6.928 1.555 10.428-1.112 10.5-8h14v18h-50v-18Zm19 0c4.055-.324 8.055.01 12 1a3.646 3.646 0 0 1-1 1.5 25.249 25.249 0 0 1-10 0c-.752-.67-1.086-1.504-1-2.5Zm37 0h14c.072 6.888 3.572 9.555 10.5 8 7.075 1.57 10.909-1.096 11.5-8h14v18h-50v-18Zm19 0a72.444 72.444 0 0 1 12 .5c-3.209 2.44-6.875 3.107-11 2-.752-.67-1.086-1.504-1-2.5Zm-75 23h42c.238 6.889 3.904 9.889 11 9 7.096.889 10.762-2.111 11-9h42v20h-106v-20Zm47 0c4.055-.324 8.055.01 12 1a3.646 3.646 0 0 1-1 1.5 25.249 25.249 0 0 1-10 0c-.752-.67-1.086-1.504-1-2.5Zm-47 26h42c.442 6.745 4.109 9.412 11 8 6.891 1.412 10.558-1.255 11-8h42v18h-106v-18Zm47 0c4.055-.324 8.055.01 12 1a3.646 3.646 0 0 1-1 1.5 25.249 25.249 0 0 1-10 0c-.752-.67-1.086-1.504-1-2.5Zm-47 23h42c.257 6.91 3.924 9.91 11 9 7.076.91 10.743-2.09 11-9h42a79.545 79.545 0 0 1-1 17.5c-34.667.667-69.333.667-104 0a79.54 79.54 0 0 1-1-17.5Zm47 0c4.055-.324 8.055.01 12 1a3.646 3.646 0 0 1-1 1.5 25.249 25.249 0 0 1-10 0c-.752-.67-1.086-1.504-1-2.5Zm-33 24a13.115 13.115 0 0 1 7 1c-6.587 10.927-8.92 10.594-7-1Zm71 0h7a35.176 35.176 0 0 0 2 8l-2 1c-3.466-2.131-5.8-5.131-7-9Z" fill="#040710"/></g><defs><clipPath id="drawers 1__a"><path fill="#fff" d="M0 0h128v128H0z"/></clipPath></defs></svg>