<svg width="128" height="129" viewBox="0 0 128 129" fill="none" xmlns="http://www.w3.org/2000/svg"><g clip-path="url(#carpenter 1__a)" fill-rule="evenodd" clip-rule="evenodd" fill="#040710"><path opacity=".79" d="M86.5 0h7c2.644 2.016 3.477 4.683 2.5 8a3.943 3.943 0 0 1-2 1 19.955 19.955 0 0 1-4.5-3c-1.145 1.276-1.145 2.609 0 4a60.802 60.802 0 0 1 5.5 3c.741 2.612-.259 4.279-3 5-10.197-3.647-12.03-9.647-5.5-18Z"/><path opacity=".735" d="M105.5 7c2.202 1.292 3.869 3.126 5 5.5 3.818.613 4.818 2.613 3 6-6.171.834-9.838-1.833-11-8 .865-1.359 1.865-2.526 3-3.5Z"/><path opacity=".836" d="M121.5 128h-14a210.273 210.273 0 0 0-8-24.5c-24-.667-48-.667-72 0a210.273 210.273 0 0 0-8 24.5h-14a343.294 343.294 0 0 1 11-47 42.707 42.707 0 0 0-9-1.5L6 78a196.249 196.249 0 0 1 0-28l1.5-1.5c18.33-.5 36.664-.667 55-.5v-3c-9.34.166-18.673 0-28-.5-1.333-1.667-1.333-3.333 0-5 9.327-.5 18.66-.666 28-.5A60.817 60.817 0 0 0 55 24a18.436 18.436 0 0 1-.5-6c2.222-.322 4.056.345 5.5 2a65.899 65.899 0 0 0 8.5 13c-.214-2.5-1.047-5.168-2.5-8-.667-1.333-.667-2.667 0-4 3.744-1.126 7.577-1.293 11.5-.5a84.514 84.514 0 0 1 6 11.5c5.302.83 10.636 1.33 16 1.5A17.833 17.833 0 0 1 105 38a44.744 44.744 0 0 0 5.5 9.5l9 1L121 50c.667 9.333.667 18.667 0 28l-1.5 1.5a42.717 42.717 0 0 0-9 1.5 343.28 343.28 0 0 1 11 47Zm-53-90c9.747-.42 19.414.08 29 1.5a55.326 55.326 0 0 1 6 8c-11.662.5-23.329.666-35 .5V38Zm-57 16c5.676-.166 11.343 0 17 .5l-4 3c-4.32.499-8.654.666-13 .5v-4Zm26 0c16.67-.167 33.337 0 50 .5a44.062 44.062 0 0 1-6 11A105.72 105.72 0 0 1 70 68c-.423 4.16 1.577 5.827 6 5 3.383-.017 6.55-.85 9.5-2.5 3.402-3.968 5.902-8.468 7.5-13.5a6.975 6.975 0 0 1 3.5-2.5c6.325-.5 12.658-.666 19-.5v7c-6.009-.166-12.009 0-18 .5-1.333 1.667-1.333 3.333 0 5 5.991.5 11.991.666 18 .5v7h-104V64c11.136 2.712 19.803-.621 26-10Zm-15 26h5A964.81 964.81 0 0 1 15 121c-.725 1.658-1.892 2.158-3.5 1.5a567.421 567.421 0 0 0 11-42.5Zm12 0a841.9 841.9 0 0 1 58 1 111.027 111.027 0 0 1 5 16h-68a248.067 248.067 0 0 1 5-17Zm65 0h5a567.615 567.615 0 0 0 11 42.5c-1.608.658-2.775.158-3.5-1.5a964.664 964.664 0 0 1-12.5-41Z"/><path opacity=".693" d="M91.5 21c4.455.263 5.622 2.263 3.5 6-2.772 3.703-5.272 3.703-7.5 0a18.178 18.178 0 0 1 4-6Z"/><path opacity=".761" d="M114.5 24c2.988-.345 4.321.988 4 4-.924 5.274-3.924 7.274-9 6-.952-1.545-1.285-3.212-1-5 3.026-.337 5.026-2.004 6-5Z"/><path opacity=".631" d="M7.5 30c3.85.2 4.85 2.034 3 5.5-4.778.073-5.778-1.76-3-5.5Z"/><path opacity=".805" d="M16.5 30c11.005-.167 22.005 0 33 .5 1.333 1.667 1.333 3.333 0 5-11 .667-22 .667-33 0-1.253-1.828-1.253-3.661 0-5.5Z"/><path opacity=".786" d="M51.5 56c6.342-.166 12.675 0 19 .5 1.49 2.022 1.158 3.688-1 5a72.496 72.496 0 0 1-17 0c-2.33-1.487-2.664-3.32-1-5.5Z"/><path opacity=".78" d="M31.5 66a73.123 73.123 0 0 1 17 1c.847 1.56.514 3.06-1 4.5a64.247 64.247 0 0 1-16 0c-1.253-1.828-1.253-3.661 0-5.5Z"/><path opacity=".633" d="M52.5 66c4.658-.485 5.992 1.348 4 5.5-2.612.741-4.279-.259-5-3 .752-.67 1.086-1.504 1-2.5Z"/></g><defs><clipPath id="carpenter 1__a"><path fill="#fff" transform="translate(0 .5)" d="M0 0h128v128H0z"/></clipPath></defs></svg>