<svg width="128" height="128" viewBox="0 0 128 128" fill="none" xmlns="http://www.w3.org/2000/svg"><g clip-path="url(#compass 1__a)" fill-rule="evenodd" clip-rule="evenodd" fill="#040710"><path opacity=".822" d="M116.5-.5h7c1.667 1 3 2.333 4 4v7c-2.905 3.575-6.571 5.075-11 4.5-2.468 1.588-2.634 3.422-.5 5.5.667 3 .667 6 0 9a278.771 278.771 0 0 0-9 25c-1.439 1.514-2.939 1.847-4.5 1-.811-5.433.189-10.6 3-15.5-1.284-.684-2.451-.517-3.5.5a1193.917 1193.917 0 0 0-21 64l3-3a427.383 427.383 0 0 0 11-31c2.856-2.935 4.69-2.435 5.5 1.5a199.46 199.46 0 0 1-6 18.5 4.452 4.452 0 0 0 1.5 2c1.684-2.2 3.684-2.867 6-2 .652 3.094.318 6.094-1 9-.347 1.68-1.347 2.68-3 3-2.362-.863-3.862-2.53-4.5-5-2.972 7.638-8.305 12.972-16 16-1.675 4.695-3.342 9.362-5 14h-4c-1.01-1.902-1.178-3.902-.5-6A1825.618 1825.618 0 0 0 83.5 76 137.873 137.873 0 0 0 70 61.5c-2.82 4.168-5.32 4-7.5-.5a13.912 13.912 0 0 1 3-4l-13-13a479.998 479.998 0 0 0-47 15 18.436 18.436 0 0 1-6 .5v-5c4.638-1.658 9.305-3.325 14-5 3.028-7.695 8.362-13.028 16-16-3.816-.929-5.15-3.095-4-6.5 3.517-1.734 7.184-2.4 11-2 1.377 2.54.71 4.54-2 6a4.452 4.452 0 0 0 2 1.5 1321.711 1321.711 0 0 0 61-21.5c4.201-.922 8.201-.422 12 1.5 2.779-1.174 3.446-3.007 2-5.5.824-3.173 2.491-5.673 5-7.5Zm2 6h3v3h-3v-3Zm-20 11c8.822-.68 12.655 3.32 11.5 12-5.841 6.894-11.175 6.561-16-1-.667-1.667-.667-3.333 0-5a40.775 40.775 0 0 1 4.5-6Zm-12 5c1.291 1.042 1.291 2.208 0 3.5a1193.917 1193.917 0 0 1-64 21c1.805-2.403 4.138-4.07 7-5a1902.163 1902.163 0 0 0 57-19.5Zm-1 10c4.145 1.46 7.479 4.127 10 8a1472.033 1472.033 0 0 1-9.5 29L74.5 57c2.541-1.848 3.541-4.348 3-7.5-3.152-.541-5.652.459-7.5 3L58.5 41a426.885 426.885 0 0 0 27-9.5Z"/><path opacity=".631" d="M99.5 59.5c3.197.612 4.531 2.612 4 6-5.497.31-6.83-1.69-4-6Z"/><path opacity=".651" d="M6.5 62.5c5.675.36 6.342 2.36 2 6-2.89-1.337-3.557-3.337-2-6Z"/><path opacity=".79" d="M9.5 71.5c2.223-.322 4.056.345 5.5 2 9.731 20.897 25.565 34.897 47.5 42 2.809 2.735 2.309 4.735-1.5 6-24.218-7.552-41.552-22.885-52-46-.579-1.428-.412-2.762.5-4Z"/></g><defs><clipPath id="compass 1__a"><path fill="#fff" d="M0 0h128v128H0z"/></clipPath></defs></svg>