<svg xmlns="http://www.w3.org/2000/svg" width="512" height="512" style="shape-rendering:geometricPrecision;text-rendering:geometricPrecision;image-rendering:optimizeQuality;fill-rule:evenodd;clip-rule:evenodd"><path d="M72 0h94c1 1 3 2 4 5l2 34c19 16 38 32 57 50 3 5 1 10-4 13H14c-7-4-8-9-3-15l56-48 1-34 4-5Zm14 18h67v16H86V18Zm-7 34h80l38 32H42l37-32Z" style="opacity:.946"/><path d="M363 0h145l4 4v504l-4 4H226l-2-2-4 2H18c-9-4-15-10-18-18V232c3-10 9-16 20-19a9896 9896 0 0 1 207 0h131V5c1-3 3-4 5-5Zm13 18h118v476H376V18ZM23 231h193c2 1 3 2 4 5l1 28H18v-28c1-3 3-4 5-5Zm216 0h119v50h-50l-2-13c-5-5-10-6-15-1-1 4-2 9-1 14h-51v-50ZM18 282h203l-1 208-3 3-20 1-1-36c-3-7-8-8-14-5-2 1-3 2-3 4v37h-16l-1-35c-3-7-8-9-14-6-2 1-3 2-3 4v37h-17l-1-38c-5-6-11-6-16 0-1 12-2 25-1 38H94l-1-37c-3-5-7-7-12-5-3 2-4 4-5 7v35H60l-1-37c-3-5-7-7-12-5-2 2-4 3-5 6v36l-20-1-4-3V282Zm221 17h119v195H239V299ZM58 316h123c2 1 4 2 5 5v92l-6 4c-42 1-83 1-124-1l-4-3v-92c1-3 3-4 6-5Z" style="opacity:.951"/><path d="M397 34h76c4 3 6 7 4 13l-6 4h-72c-7-3-9-8-6-14 1-2 2-3 4-3Z" style="opacity:.936"/><path d="M466 213c5-2 8 0 11 5v25c-3 4-8 6-13 3-2-1-4-3-4-5-1-9-1-17 1-24l5-4Z" style="opacity:.911"/><path d="M50 238c7 0 11 5 9 13l-3 4c-12 2-16-2-13-13 2-2 4-4 7-4ZM85 238c7 1 10 6 8 14-3 3-7 4-12 3-6-4-7-9-3-14 2-2 4-3 7-3Z" style="opacity:.878"/><path d="M153 238c8 1 11 6 8 14-5 5-11 5-16 0-2-8 0-13 8-14Z" style="opacity:.891"/><path d="M187 238c7 0 10 4 9 12l-4 5c-11 2-15-2-13-12 2-3 4-5 8-5Z" style="opacity:.878"/><path d="M56 298h127c11 2 18 9 21 20v98c-3 11-11 17-22 19H56c-11-2-19-9-22-19v-99c3-11 11-17 22-19Zm2 18c-3 1-5 2-6 5v92l4 3c41 2 82 2 124 1l6-4v-92c-1-3-3-4-5-5H58Z" style="opacity:.946"/><path d="M262 315h73c6 3 8 8 5 15l-3 2h-76c-4-1-6-4-5-8-1-5 1-8 6-9Z" style="opacity:.935"/><path d="M75 332c8 0 12 4 11 13 0 11-5 15-15 12l-3-3v-17c2-3 4-4 7-5Z" style="opacity:.894"/><path d="M332 366c4 0 7 2 9 7v22c-4 7-10 8-16 3-1-5-2-10-1-14v-12c2-4 4-6 8-6Z" style="opacity:.916"/><path d="M74 375c5-1 9 1 11 6v14c-3 5-7 7-13 5l-4-4v-16c1-3 3-5 6-5Z" style="opacity:.899"/><path d="M262 460h73c6 3 8 8 5 15l-3 2h-77c-4-3-5-7-4-12 1-3 3-4 6-5Z" style="opacity:.934"/><path d="M399 460h72c6 2 8 6 6 13l-4 4h-76c-5-3-7-8-4-13 2-2 3-4 6-4Z" style="opacity:.936"/></svg>